<svg xmlns="http://www.w3.org/2000/svg" version="1.1" xmlns:xlink="http://www.w3.org/1999/xlink" xmlns:svgjs="http://svgjs.dev/svgjs" width="100%" height="100%" viewBox="0 0 1000 600"><rect width="1000" height="600" x="0" y="0" fill="#f6b042"/><g><rect width="333.3333333333333" height="333.3333333333333" y="257.56397978192206" fill="#ff58ff" transform="matrix(0.531142508802883,0,0,0.531142508802883,0,74.67307458689478)" x="235.3418579101563"/><path d="M286.1021987655994 499.2306599271346L286.1021987655994 349.2306552655899L320.62358476713615 349.2306552655899Q349.2182903400905 349.2306552655899 362.9657449424724 359.34267187311974Q376.71319954485426 369.4546884806495 376.71319954485426 393.4363592870268L376.71319954485426 393.4363592870268Q376.71319954485426 406.6339157053134 371.64191629153123 415.43228665083785Q366.6011829373245 424.2306575963623 358.99425805733983 429.6074398408494Q351.4178830764716 435.0147719844529 342.61951213094716 437.3060144181832Q333.8211411854228 439.62780675102994 326.33641590190376 439.62780675102994L326.33641590190376 439.62780675102994L304.55433783190756 439.62780675102994L304.55433783190756 499.2306599271346L286.1021987655994 499.2306599271346ZM304.55433783190756 365.72760078844817L304.55433783190756 423.1308612281717L324.80892094608356 423.1308612281717Q332.2936462296026 423.1308612281717 338.34252625465064 421.6950159697007Q344.39140627969863 420.25917071122973 348.79059175246084 416.86813190930883Q353.18977722522305 413.4465432082716 355.603219255419 407.6115124770384Q358.01666128561493 401.77648174580514 358.01666128561493 392.9781108002807L358.01666128561493 392.9781108002807Q358.01666128561493 384.17973985475635 355.48101965895336 378.8029576102692Q352.9453780322918 373.42617536578206 347.99629437543433 370.5544848488401Q343.0472107185769 367.68279433189804 335.5930353341742 366.70519756017313Q328.1083100506552 365.72760078844817 318.2101427369402 365.72760078844817L318.2101427369402 365.72760078844817L304.55433783190756 365.72760078844817ZM404.88020653017895 499.2306599271346L404.88020653017895 349.2306552655899L422.4769484212278 349.2306552655899L501.20403844420144 468.2225123239843L501.6622869309475 468.2225123239843Q501.20403844420144 461.8375834086558 500.99018915038664 454.56670741895164L500.99018915038664 454.56670741895164Q500.562490562757 448.4261776965544 500.4402909662913 440.3915542289401Q500.3180913698257 432.35693076132577 500.3180913698257 424.0168083025474L500.3180913698257 424.0168083025474L500.3180913698257 349.2306552655899L517.9148332608745 349.2306552655899L517.9148332608745 499.2306599271346L500.3180913698257 499.2306599271346L421.59100134685207 379.78055438199414L421.132752860106 379.78055438199414Q421.37715205303726 386.3793325911374 421.80485064066687 393.65020858084165L421.80485064066687 393.65020858084165Q422.01869993448173 400.03513749617014 422.2325492282966 407.9475613673188Q422.4769484212278 415.8599852384675 422.4769484212278 424.2306575963623L422.4769484212278 424.2306575963623L422.4769484212278 499.2306599271346L404.88020653017895 499.2306599271346Z " fill="#533549" transform="matrix(0.531142508802883,0,0,0.531142508802883,0,74.67307458689478)"/><path d="M652.008517438907 496.4129104477109L652.008517438907 349.2306477237623L685.8814210800601 349.2306477237623Q713.9389766624666 349.2306477237623 727.4281860770851 359.1527106487372Q740.9173954917036 369.07477357371215 740.9173954917036 392.6059499969911L740.9173954917036 392.6059499969911Q740.9173954917036 405.55559103502486 735.9413760187555 414.1886850603807Q730.9953325667287 422.8217790857366 723.5313033573065 428.0975587678985Q716.0972501688055 433.40331447098174 707.4641561434497 435.6515160400848Q698.8310621180939 437.9296936301093 691.4869369923571 437.9296936301093L691.4869369923571 437.9296936301093L670.1140340754172 437.9296936301093L670.1140340754172 496.4129104477109L652.008517438907 496.4129104477109ZM670.1140340754172 365.4176990213045L670.1140340754172 421.7426423325671L689.9881359462885 421.7426423325671Q697.3322610720252 421.7426423325671 703.2675132144574 420.33376934926247Q709.2027653568895 418.92489636595786 713.5193123695674 415.5975580436853Q717.8358593822453 412.24024370049136 720.2039650350339 406.51482370450884Q722.5720706878225 400.7894037085263 722.5720706878225 392.1563096831705L722.5720706878225 392.1563096831705Q722.5720706878225 383.52321565781466 720.0840609513483 378.24743597565276Q717.5960512148743 372.9716562934908 712.7399358256116 370.15391032688166Q707.883820436349 367.33616436027245 700.5696713315336 366.37693169078847Q693.2255462057968 365.4176990213045 683.5133154272716 365.4176990213045L683.5133154272716 365.4176990213045L670.1140340754172 365.4176990213045ZM839.328672176576 479.3565545434488L842.5660824360845 493.8349726484727Q837.6200389840577 495.3337736945414 832.3142832809743 496.4129104477109Q827.0385035988124 497.49204720088034 820.6536111425597 498.3613518076002Q814.2986947072283 499.2306564143201 807.4042098953122 499.2306564143201L807.4042098953122 499.2306564143201Q796.6128423636173 499.2306564143201 787.3202758779913 496.20307830126126Q778.0277093923652 493.1755001882024 771.1332245804491 486.4908475227359Q764.2387397685329 479.8061948572694 760.2219529650688 469.10475538833873Q756.2351421825259 458.4332919403294 756.2351421825259 442.8757370821361L756.2351421825259 442.8757370821361Q756.2351421825259 428.84695929093283 760.1320249023047 418.1754958429235Q763.998931601162 407.5040323949142 770.803488350314 400.2498353319416Q777.608045099466 393.0256142898903 786.7807075014065 389.36853973748265Q795.9533699033472 385.6814891641536 806.744737435042 385.6814891641536L806.744737435042 385.6814891641536Q817.3262728202872 385.6814891641536 825.0900622389231 389.7882040303819Q832.8538516575592 393.8949188966102 837.9197991932714 400.90930779221185Q843.0157227499051 407.92369668781345 845.4737564654578 417.3061912362037Q847.9617662019318 426.6886857845939 847.9617662019318 437.0603890233894L847.9617662019318 437.0603890233894L844.7243559424234 446.5627876554652L775.0301073002278 446.5627876554652Q775.0301073002278 453.2474403209316 776.7387404927462 459.9320929863981Q778.4773497061858 466.6167456518646 782.6739926351783 472.01242941771204Q786.9006115850921 477.40811318355946 793.6751923133227 480.7654275267534Q800.4797490624748 484.12274186994733 810.6416201548207 484.12274186994733L810.6416201548207 484.12274186994733Q817.1164406738375 484.12274186994733 822.512124439685 483.3433653259916Q827.9078082055323 482.59396480295726 831.8946189880751 481.6347321334733Q835.881429770618 480.64552344306793 839.328672176576 479.3565545434488L839.328672176576 479.3565545434488ZM775.6596037395767 432.7438420107115L830.0660817118713 432.7438420107115Q830.0660817118713 431.2450409646428 829.406609251601 426.059189345245Q828.7471367913308 420.8733377258472 826.3790311385422 415.2678218135502Q824.0109254857537 409.66230590125315 819.0349060128054 405.22585480488976Q814.0888625607787 400.7894037085263 805.8754328283221 400.7894037085263L805.8754328283221 400.7894037085263Q796.822674510067 400.7894037085263 790.977350430399 404.5663823446195Q785.1620023716523 408.3433609807127 781.7147599656943 413.5292126001105Q778.2675175597362 418.71506421950824 776.9485726391957 424.11074798535566Q775.6596037395767 429.5064317512031 775.6596037395767 432.7438420107115L775.6596037395767 432.7438420107115ZM879.4665641902965 357.6239335817471L896.7327522410081 355.46566007540815L896.7327522410081 387.8397626704926L928.0277180829231 387.8397626704926L928.0277180829231 401.86854046169583L896.7327522410081 401.86854046169583L896.7327522410081 459.5124286934989Q896.7327522410081 466.6167456518646 897.0624884711432 471.3829329783632Q897.3922247012783 476.1191442839404 898.4713614544479 478.93689025054954Q899.5504982076174 481.7246601962374 901.4989395675066 482.92370103309236Q903.447380927396 484.12274186994733 906.4449830195334 484.12274186994733L906.4449830195334 484.12274186994733Q914.65841275199 483.88293370257634 925.4497802836848 478.06758564382966L925.4497802836848 478.06758564382966L930.6356319030826 491.2270588283131Q923.5013389237955 495.99324615481163 917.3562546349137 497.61195128456586Q911.211170346032 499.2306564143201 905.1560141199144 499.2306564143201L905.1560141199144 499.2306564143201Q890.9174041822615 499.2306564143201 885.1919841862789 491.137130765549Q879.4665641902965 483.0436051167779 879.4665641902965 464.24863999907603L879.4665641902965 464.24863999907603L879.4665641902965 401.86854046169583L859.6224383403465 401.86854046169583L859.6224383403465 387.8397626704926L879.4665641902965 387.8397626704926L879.4665641902965 357.6239335817471ZM953.5073358660914 496.4129104477109L953.5073358660914 349.2306477237623L970.773523916803 349.2306477237623L1048.0517058521064 465.9872492125158L1048.4713701450055 465.9872492125158Q1048.0517058521064 459.72226083994855 1047.8118976847354 452.5879678606614L1047.8118976847354 452.5879678606614Q1047.3922333918363 446.5627876554652 1047.2723293081508 438.67909415314364Q1047.1824012453867 430.79540065082216 1047.1824012453867 422.61194693928695L1047.1824012453867 422.61194693928695L1047.1824012453867 349.2306477237623L1064.4485892960984 349.2306477237623L1064.4485892960984 496.4129104477109L1047.1824012453867 496.4129104477109L969.9042193100832 379.20666864513674L969.4845550171839 379.20666864513674Q969.6943871636336 385.6814891641536 970.1140514565328 392.8157821434407L970.1140514565328 392.8157821434407Q970.3538596239038 399.080770516008 970.5636917703533 406.844559934644Q970.773523916803 414.60834935327995 970.773523916803 422.8217790857366L970.773523916803 422.8217790857366L970.773523916803 496.4129104477109L953.5073358660914 496.4129104477109ZM1164.1488348805897 498.1515196611506L1162.8598659809704 484.5424061628466L1162.4402016880713 484.5424061628466Q1160.491760328182 486.0412072089153 1156.8047097548529 488.52921694538935Q1153.1476352024451 491.01722668186346 1148.4114238968682 493.38533233465205Q1143.6452365703694 495.75343798744063 1137.919816574387 497.49204720088034Q1132.2243725993258 499.2306564143201 1126.3790485196578 499.2306564143201L1126.3790485196578 499.2306564143201Q1118.4054269545722 499.2306564143201 1112.7999110422752 497.16231097074524Q1107.1644191090568 495.12394154809175 1103.7171767030986 490.3577542215932Q1100.2699342971405 485.62154291601604 1098.7711332510721 477.8577534973801Q1097.242356184082 470.0939640787441 1097.242356184082 458.4332919403294L1097.242356184082 458.4332919403294L1097.242356184082 387.8397626704926L1114.5085442347936 387.8397626704926L1114.5085442347936 455.82537812016983Q1114.5085442347936 462.3001986391867 1114.7183763812432 467.4860502585845Q1114.958184548614 472.6719018779823 1116.2471534482333 476.32897643039Q1117.5361223478521 480.01602700371905 1120.4437963772257 482.05439642637253Q1123.3514704065992 484.12274186994733 1128.7471541724462 484.12274186994733L1128.7471541724462 484.12274186994733Q1134.3826461056647 484.12274186994733 1140.4078263108613 481.7246601962374Q1146.4629825369789 479.3565545434488 1151.4090259890054 476.32897643039L1151.4090259890054 476.32897643039Q1157.2543500686734 472.8817340244319 1162.8598659809704 468.565187011754L1162.8598659809704 468.565187011754L1162.8598659809704 387.8397626704926L1180.126054031682 387.8397626704926L1180.126054031682 482.38413265650763Q1180.3358861781317 490.1479220751436 1181.2051907848518 496.4129104477109L1181.2051907848518 496.4129104477109L1164.1488348805897 498.1515196611506ZM1211.6308520200469 496.4129104477109L1211.6308520200469 407.5040323949142Q1211.6308520200469 400.1599072691775 1210.3418831204276 389.7882040303819L1210.3418831204276 389.7882040303819L1226.52893441797 387.62993052404295L1228.8970400707585 401.23904402234695Q1234.7423641504265 396.92249700966903 1240.3478800627236 393.68508675016056Q1245.9533959750206 390.44767649065216 1252.4282164940373 388.07957083786357Q1258.9030370130545 385.6814891641536 1265.5876896785207 385.6814891641536L1265.5876896785207 385.6814891641536Q1276.3790572102157 385.6814891641536 1282.6440455827828 389.45846780024675Q1288.9090339553504 393.23544643633994 1291.936612068409 402.3181807755164L1291.936612068409 402.3181807755164Q1300.7795382402146 396.05319240294915 1310.3718649350544 390.86734078355136Q1319.9941676508156 385.6814891641536 1330.3358948686896 385.6814891641536L1330.3358948686896 385.6814891641536Q1338.3394924546965 385.6814891641536 1343.9450083669935 387.7498346077284Q1349.5505242792906 389.7882040303819 1352.9977666852487 394.55439135688044Q1356.4450090912069 399.2906026624576 1357.973786158197 407.05439208109357Q1359.472587204266 414.8181814997296 1359.472587204266 426.47885363814424L1359.472587204266 426.47885363814424L1359.472587204266 496.4129104477109L1342.2063991535542 496.4129104477109L1342.2063991535542 428.4272949980336Q1342.2063991535542 421.9524744790167 1341.9965670071042 416.88652694330443Q1341.7867348606546 411.8205794075921 1340.4977659610358 408.2534329179486Q1339.1788210404952 404.686286428305 1336.2711470111217 402.73784506841565Q1333.3634729817486 400.7894037085263 1327.9677892159011 400.7894037085263L1327.9677892159011 400.7894037085263Q1322.9917697429528 400.7894037085263 1318.5852946675109 402.1982766918309Q1314.1488435711476 403.60714967513553 1309.4126322655702 406.18508747437374Q1304.646444939072 408.7930012945333 1294.724382014097 416.7666228596189L1294.724382014097 416.7666228596189L1294.724382014097 496.4129104477109L1277.4581939633854 496.4129104477109L1277.4581939633854 428.4272949980336Q1277.4581939633854 421.9524744790167 1277.2483618169354 416.88652694330443Q1277.0385296704858 411.8205794075921 1275.749560770867 408.2534329179486Q1274.4306158503264 404.686286428305 1271.5229418209528 402.73784506841565Q1268.6152677915798 400.7894037085263 1263.2195840257323 400.7894037085263L1263.2195840257323 400.7894037085263Q1257.6140681134352 400.7894037085263 1251.5589118873177 403.1874853822363Q1245.5337316821215 405.55559103502486 1240.138047916274 408.7930012945333Q1234.7423641504265 412.03041155404173 1228.8970400707585 416.3469585667197L1228.8970400707585 416.3469585667197L1228.8970400707585 496.4129104477109L1211.6308520200469 496.4129104477109ZM1390.138056606832 496.4129104477109L1390.138056606832 407.5040323949142Q1390.138056606832 400.1599072691775 1388.8191116862913 389.7882040303819L1388.8191116862913 389.7882040303819L1405.0061629838337 387.62993052404295L1407.4042446575431 401.23904402234695Q1413.2195927162898 396.92249700966903 1418.8251086285873 393.68508675016056Q1424.4306245408843 390.44767649065216 1430.905445059901 388.07957083786357Q1437.3802655789177 385.6814891641536 1444.0948942653058 385.6814891641536L1444.0948942653058 385.6814891641536Q1454.8862617970008 385.6814891641536 1461.1212741486465 389.45846780024675Q1467.3862625212137 393.23544643633994 1470.4138406342727 402.3181807755164L1470.4138406342727 402.3181807755164Q1479.2567668060783 396.05319240294915 1488.879069521839 390.86734078355136Q1498.4713962166793 385.6814891641536 1508.8430994554747 385.6814891641536L1508.8430994554747 385.6814891641536Q1516.8167210205602 385.6814891641536 1522.4222369328572 387.7498346077284Q1528.0277528451543 389.7882040303819 1531.5049712720338 394.55439135688044Q1534.9522136779915 399.2906026624576 1536.4510147240603 407.05439208109357Q1537.9797917910505 414.8181814997296 1537.9797917910505 426.47885363814424L1537.9797917910505 426.47885363814424L1537.9797917910505 496.4129104477109L1520.7136037403388 496.4129104477109L1520.7136037403388 428.4272949980336Q1520.7136037403388 421.9524744790167 1520.473795572968 416.88652694330443Q1520.2639634265183 411.8205794075921 1518.974994526899 408.2534329179486Q1517.6860256272798 404.686286428305 1514.7783515979067 402.73784506841565Q1511.8407015476123 400.7894037085263 1506.4450177817648 400.7894037085263L1506.4450177817648 400.7894037085263Q1501.4989743297378 400.7894037085263 1497.0625232333746 402.1982766918309Q1492.6560481579322 403.60714967513553 1487.889860831434 406.18508747437374Q1483.1536495258565 408.7930012945333 1473.2315866008817 416.7666228596189L1473.2315866008817 416.7666228596189L1473.2315866008817 496.4129104477109L1455.96539855017 496.4129104477109L1455.96539855017 428.4272949980336Q1455.96539855017 421.9524744790167 1455.725590382799 416.88652694330443Q1455.5157582363495 411.8205794075921 1454.2267893367302 408.2534329179486Q1452.937820437111 404.686286428305 1450.030146407738 402.73784506841565Q1447.0924963574435 400.7894037085263 1441.6968125915955 400.7894037085263L1441.6968125915955 400.7894037085263Q1436.091296679299 400.7894037085263 1430.0661164741023 403.1874853822363Q1424.0109602479847 405.55559103502486 1418.6152764821377 408.7930012945333Q1413.2195927162898 412.03041155404173 1407.4042446575431 416.3469585667197L1407.4042446575431 416.3469585667197L1407.4042446575431 496.4129104477109L1390.138056606832 496.4129104477109ZM1628.8371112037366 471.1731008319136L1628.8371112037366 446.5627876554652Q1624.5205641910588 446.77261980191474 1620.6236814712802 446.98245194836437Q1616.756774772423 447.192284094814 1612.9797961363297 447.5220203249491Q1609.2028175002365 447.85175655508425 1606.1752393871775 448.2714208479835L1606.1752393871775 448.2714208479835Q1590.6176845289842 450.21986220787284 1584.1428640099675 455.0759775971355Q1577.6680434909504 459.9320929863981 1577.6680434909504 469.01482732557463L1577.6680434909504 469.01482732557463Q1577.6680434909504 476.56878459776095 1582.3143267337637 480.34576323385414Q1586.9606099765765 484.12274186994733 1594.514567248763 484.12274186994733L1594.514567248763 484.12274186994733Q1604.8862704875582 484.12274186994733 1612.9797961363297 480.55559538030377Q1621.0733217851007 476.9884488906602 1628.8371112037366 471.1731008319136L1628.8371112037366 471.1731008319136ZM1630.785552563626 498.1515196611506L1628.627279057287 486.2810153762863Q1618.4654079649408 492.09636343503297 1609.7423858768211 495.6635099246765Q1600.98938776778 499.2306564143201 1590.8574926963552 499.2306564143201L1590.8574926963552 499.2306564143201Q1576.3790745913311 499.2306564143201 1567.865884649661 492.21626751871844Q1559.322718687069 485.2018786231168 1559.322718687069 469.01482732557463L1559.322718687069 469.01482732557463Q1559.322718687069 460.59156544666837 1563.6392656997473 454.3265770741011Q1567.955812712425 448.0615887015339 1574.9702016080269 443.86494577254143Q1581.9845905036282 439.6383268226276 1590.8574926963552 437.27022116983903Q1599.7004188681608 434.9021155170505 1608.963009332865 434.24264305678025L1608.963009332865 434.24264305678025Q1612.8598920526442 433.822978763881 1619.1248804252114 433.4932425337459Q1625.3898687977785 433.16350630361075 1628.8371112037366 432.9536741571611L1628.8371112037366 432.9536741571611Q1628.8371112037366 425.3997168849748 1628.3874708899161 419.4644647425426Q1627.9678065970165 413.5292126001105 1625.8095330906776 409.33256967111805Q1623.6512595843387 405.10595072120424 1619.4546166553464 402.9476772148653Q1615.2279977054327 400.7894037085263 1607.4642082867967 400.7894037085263L1607.4642082867967 400.7894037085263Q1601.1992199142292 400.7894037085263 1595.3838718554825 401.56878025248204Q1589.5385477758145 402.3181807755164 1585.0121686166872 403.1874853822363L1585.0121686166872 403.1874853822363Q1579.6164848508397 404.2666221354058 1575.0901056917123 405.55559103502486L1575.0901056917123 405.55559103502486L1571.6428632857542 390.6575086371018Q1577.0385470516017 389.36853973748265 1583.3035354241688 388.2894029843132L1583.3035354241688 388.2894029843132Q1588.6992191900163 387.2102662311437 1595.8035361483821 386.46086570810934Q1602.937829127669 385.6814891641536 1611.1212828392045 385.6814891641536L1611.1212828392045 385.6814891641536Q1622.15245853827 385.6814891641536 1628.9270392665007 388.918899423662Q1635.7315960156525 392.1563096831705 1639.5085746517457 397.6718975327034Q1643.2855532878389 403.1874853822363 1644.6944262711436 410.20187427783793Q1646.1032992544483 417.21626317343953 1646.1032992544483 424.98005259207554L1646.1032992544483 424.98005259207554L1646.1032992544483 476.7786167442106Q1646.1032992544483 479.8061948572694 1646.1932273172124 483.133533179542Q1646.3131314008979 486.4908475227359 1646.642867631033 489.7282577822444Q1646.9726038611684 492.96566804175285 1647.3922681540676 496.4129104477109L1647.3922681540676 496.4129104477109L1630.785552563626 498.1515196611506Z " fill="#533549" transform="matrix(0.531142508802883,0,0,0.531142508802883,0,74.67307458689478)"/></g></svg>